<?xml version="1.0" standalone="no"?>
<!DOCTYPE svg PUBLIC "-//W3C//DTD SVG 20010904//EN"
 "http://www.w3.org/TR/2001/REC-SVG-20010904/DTD/svg10.dtd">
<svg version="1.0" xmlns="http://www.w3.org/2000/svg"
 width="596.000000pt" height="323.000000pt" viewBox="0 0 596.000000 323.000000"
 preserveAspectRatio="xMidYMid meet">

<g transform="translate(0.000000,323.000000) scale(0.100000,-0.100000)"
fill="#000000" stroke="none">
<path d="M170 1669 l0 -1400 643 3 c564 4 654 6 737 22 601 113 999 553 1071
1186 14 127 7 379 -15 502 -92 514 -457 909 -961 1038 -176 45 -268 50 -895
50 l-580 0 0 -1401z m1330 923 c134 -47 221 -101 315 -197 194 -198 288 -469
272 -784 -17 -342 -150 -610 -382 -770 -92 -64 -163 -96 -269 -121 -71 -18
-119 -20 -398 -20 l-318 0 0 966 0 966 343 -4 342 -3 95 -33z"/>
<path d="M2998 1670 l-3 -1400 254 0 253 0 -4 1000 c-2 550 -1 1000 2 1000 3
0 29 -62 58 -138 29 -75 168 -428 309 -784 l256 -648 247 0 246 0 164 408 c90
224 232 577 315 784 83 207 154 380 158 384 4 4 7 -446 7 -999 l0 -1007 245 0
245 0 0 1400 0 1400 -318 0 -319 0 -80 -197 c-376 -927 -657 -1602 -663 -1596
-4 4 -74 172 -155 373 -81 201 -237 586 -347 855 -110 270 -207 507 -215 528
l-15 37 -319 0 -319 0 -2 -1400z"/>
</g>
</svg>
